<?xml version="1.0" encoding="UTF-8"?><svg id="Layer_1" xmlns="http://www.w3.org/2000/svg" viewBox="0 0 45.49 40.72"><defs><style>.cls-1{fill:#001219;}</style></defs><path class="cls-1" d="M44.11,11.66h-8.08L29.34.49c-.28-.48-.89-.63-1.37-.35-.48.28-.63.89-.35,1.37,0,0,0,0,0,0l6.07,10.14H10.99L17.06,1.52c.29-.47.14-1.09-.34-1.37-.47-.29-1.09-.14-1.37.34,0,0,0,0,0,0l-6.68,11.17H1.39c-.76,0-1.38.62-1.39,1.39v5.83c0,.76.62,1.38,1.39,1.39h.86l4.49,19.69c.1.45.51.78.98.78h30.07c.47,0,.87-.32.98-.78l4.49-19.69h.86c.76,0,1.38-.62,1.39-1.39v-5.83c0-.76-.62-1.38-1.39-1.39ZM36.99,38.72H8.51l-4.21-18.47h36.9l-4.21,18.47ZM43.49,18.26H2v-4.6h41.49v4.6Z"/><path class="cls-1" d="M12.68,33.56c.55,0,1-.45,1-1h0v-8.24c0-.55-.45-1-1-1s-1,.45-1,1v8.24c0,.55.45,1,1,1h0Z"/><path class="cls-1" d="M22.75,33.56c.55,0,1-.45,1-1h0v-8.24c0-.55-.45-1-1-1s-1,.45-1,1v8.24c0,.55.45,1,1,1h0Z"/><path class="cls-1" d="M32.82,33.56c.55,0,1-.45,1-1h0v-8.24c0-.55-.45-1-1-1s-1,.45-1,1v8.24c0,.55.45,1,1,1h0Z"/></svg>